<?xml version="1.0" encoding="utf-8"?>
<!-- Generator: Adobe Illustrator 19.0.0, SVG Export Plug-In . SVG Version: 6.00 Build 0)  -->
<svg version="1.1" id="Layer_1" xmlns="http://www.w3.org/2000/svg" xmlns:xlink="http://www.w3.org/1999/xlink" x="0px" y="0px"
	 viewBox="0 0 250 250" style="enable-background:new 0 0 250 250;" xml:space="preserve">
<style type="text/css">
	.st0{fill:url(#XMLID_2_);}
	.st1{fill:url(#XMLID_3_);}
	.st2{fill:url(#XMLID_4_);}
</style>
<g id="Layer_2">
	<linearGradient id="XMLID_2_" gradientUnits="userSpaceOnUse" x1="124.4967" y1="177.3675" x2="126.7467" y2="105.6175">
		<stop  offset="0.4356" style="stop-color:#8B2600"/>
		<stop  offset="0.5935" style="stop-color:#47002B"/>
		<stop  offset="0.8769" style="stop-color:#000000"/>
	</linearGradient>
	<path id="XMLID_5_" class="st0" d="M107,128h37l8.5,14.5c3.3,5.5,2,10.5-6.2,14.5H106c-7.3-2-11.6-5.8-8-14.5L107,128z"/>
	<linearGradient id="XMLID_3_" gradientUnits="userSpaceOnUse" x1="63.9311" y1="108.8196" x2="125.6458" y2="109.0665">
		<stop  offset="0.4241" style="stop-color:#8B2600"/>
		<stop  offset="0.7281" style="stop-color:#47002B"/>
		<stop  offset="0.9682" style="stop-color:#000000"/>
	</linearGradient>
	<path id="XMLID_6_" class="st1" d="M98.3,78.5l-17.3,29.2c-3.3,4.6-3.8,8.4-1.1,12.5L93.5,144l22-38.1c0.4-1.2,0.5-1.9,0.5-3.3V78
		c0-2.5-0.8-4-3.2-4H106C102.7,74,100.5,75,98.3,78.5z"/>
	<linearGradient id="XMLID_4_" gradientUnits="userSpaceOnUse" x1="190.0012" y1="108.8104" x2="120.7509" y2="109.0604">
		<stop  offset="0.4298" style="stop-color:#8B2600"/>
		<stop  offset="0.7041" style="stop-color:#47002B"/>
		<stop  offset="0.9532" style="stop-color:#000000"/>
	</linearGradient>
	<path id="XMLID_7_" class="st2" d="M152.3,77.8l18.3,31.5c2.4,3.7,2.1,7,0.5,10.2l-13.9,24.4l-22.4-38.3c-0.6-1.1-0.8-1.3-0.8-3V77
		c1-1.7,2.2-3,4-3h7C147.9,74,150.2,75.6,152.3,77.8z"/>
</g>
</svg>
