<?xml version="1.0" encoding="utf-8"?>
<!-- Generator: Adobe Illustrator 19.0.0, SVG Export Plug-In . SVG Version: 6.00 Build 0)  -->
<svg version="1.1" id="Layer_1" xmlns="http://www.w3.org/2000/svg" xmlns:xlink="http://www.w3.org/1999/xlink" x="0px" y="0px"
	 viewBox="-315 -98.4 1288.4 736.4" style="enable-background:new -315 -98.4 1288.4 736.4;" xml:space="preserve">
<style type="text/css">
	.st0{display:none;}
	.st1{fill:#404040;}
	.st2{fill:#999999;}
	.st3{fill:#FFFFFF;}
	.st4{font-family:'StencilStd';}
	.st5{font-size:9.636px;}
	.st6{font-size:10.227px;}
	.st7{font-size:6.3485px;}
	.st8{font-size:8.4232px;}
	.st9{font-size:8.7784px;}
	.st10{font-size:8.9359px;}
	.st11{font-size:10.4338px;}
	.st12{font-size:8.0107px;}
	.st13{font-size:5.7285px;}
	.st14{font-size:10.067px;}
	.st15{font-size:8.8374px;}
	.st16{font-size:9.7837px;}
	.st17{font-size:9.5768px;}
	.st18{font-size:9.3405px;}
</style>
<rect id="XMLID_272_" x="-83.6" y="-22" class="st0" width="976" height="414"/>
<g id="Layer_2">
	<path id="XMLID_273_" class="st1" d="M201.4,177v19l3,2.8v36.3h-3v8h10v10l2.6,3h19.4c1.6,0,3.2-0.7,4-1.9
		c8.1-15,18.9-28.2,31.9-40c1.5-1.4,1.9-2.8,0.6-4.3L258.5,197v-3L247,182.9l-0.4-5.8l-3-2.1h-39.1L201.4,177z"/>
	<polygon id="XMLID_275_" class="st1" points="310.1,99.5 299.6,135.5 337.4,143.5 337.4,142 343.4,143.5 343.4,142 350.9,143.5 
		351.1,142 354.2,142.5 362,113.9 360.5,113.7 360.8,112 353.2,110.7 353.5,109.2 347.7,108.2 347.8,106.8 	"/>
	<path id="XMLID_276_" class="st1" d="M226.9,50.2l27.8,10.6l-0.3,1.3l13.3,5.7l-1.8,4.3L293,82.4l-18.8,38.5
		c-0.4,5.1-2.7,8.3-6.5,9.8l-12.7,7.6l0.1,3.3l-52.7,0.3v-4.1L189.7,127c-7.2-2.2-7.2-11.7,0.5-15.8l5.1,2L226.9,50.2z"/>
	<path id="XMLID_277_" class="st1" d="M521.5,179.8l-24.8,28.4c-1.8,1.9-1.8,3.5,0.4,5.7c11.6,10.3,21.4,22,29.2,35.4
		c1.5,2.5,3,4.4,5.8,4.8h60.3v2h44l3-2.7v-16.3l-3.3-2.6l-21.3-0.1l0.2-2.9l-6.4,0.2l-7.3-5.8l-0.1-1.5l-8.2,0.2l-7.8-5.6l-0.3-2.8
		l-49.3-35.6l-3.5,0.1l-4.1-2.6C525.5,177.1,523.3,177.5,521.5,179.8z"/>
	<path id="XMLID_279_" class="st1" d="M251.4,271v29.9l-3.2,0.1l-0.4,75h8.6v4h12c0,2.8,0,10.3,0,13l-19,0.3v2.7l-10,11h-14.1
		l-9.9-9.9l0.1-11.6l4.8-4.1l0.7-80.1l-6.5,0.1V271H251.4z"/>
	<path id="XMLID_280_" class="st1" d="M514.4,271h36l-0.2,31h-4.5l0.1,30h8.6l3,2h23l0.6,48h-1.6c0,0,3,2.5,3,2.3s0,14.7,0,14.7h-18
		l-7-5.3V385l3.2-3h-3.2l-2.2,1.3l-7.9,0.1l2.2,1.3v11.7l-9.8,8.6h-14.3l-9.5-8.3l-8.5,0.1V393l-11-0.2V381h10.9v-4.5l9.1-0.1v-74.8
		h-2.1L514.4,271z"/>
	<path id="XMLID_281_" class="st1" d="M283.4,261h47c30.7-23.2,76-23.2,104,0h46C462.1,199.5,320.7,183.8,283.4,261z"/>
	<path id="XMLID_298_" class="st2" d="M650.9,259H522.4c-7.6,0-14.6,0.2-20.5,2.1l-0.1-0.1l-29.1-35.4l27.4-33.3
		c2.5-6.6-1.3-12.7-7-17.3c-34.6-14.2-72.2-28.1-124-25.3l-85.8,5.8l-19.8,6.5l-56.3,2c-4.6,0.5-4.1,6.3,0,6l60.9-2l18.1-6
		c5.5,0.2,6.7,3.5,2.8,7.3l-21.8,8.3c-4.1,4.8-4.6,9.7-2.5,14.8l14,17.7c4,2.5,3.8,5.9,2.3,9.5L257.6,261l-212.5-2.4
		c-6.9,0.3-5.9,8.4,0.3,8.4h202.3c4.7,1,6.4,3.6,8.8,8.1l0.8,30.8c1.6,7.1,5.1,9.9,8.2,14.5l63.7,80.3l-13-0.1
		c-7.1,0.4-13.3,0.1-18.5-5l-16.3-19.5c-2.5-3.3-5.6-3.3-6,0v19.5c-0.5,2.4-2.3,3.9-5,4.5h-8c-4.5,0.3-4.6,7,0,7h71.8l13.8,17.4
		c2.2,3.3,4,7.1,1.7,11l-20.5,17.3c-7.7,5.4-23.7,2.9-34.2-4.6l-142.4-81.9c-34-8-76.7-10.5-123.8-10.2c-8.8,2.3-6.5,11.1,0,11.3
		c40.8,0.6,86.3,2.3,120.4,10L293,459.1c15.2,7.6,30.8,11.5,42,4.7l27-24.7c5.2-5.1,1-12.6-3.7-19l-29.2-38
		c-5.1-14,12.4-27.9,25.2-22.5c18.7,10.2,37,10,58-0.5c9.6-2.8,27.5,12.2,22.5,23.6l-30,37.9c-3.9,4.8-6.3,9.9-4.2,14.8l12.3,27.9
		l9.6,17.9c34.6,4,80.6,17.4,102.4,41.2c4.1,3.2,9.8-1.2,6.7-5.3c-12.1-12.6-27.9-22.6-46.7-30.3c-18.6-7.2-37.8-11.8-57.7-13.3
		l-5.3-13.3l-10-22.3c-1.1-3.3-1.6-6.4,1-9l9.7-12.7h163.6c4.4,0,4.9-6.8,0-7l-92.4-0.1c-3.2-0.9-5.2-4.4-5.6-6.9v-26
		c-0.8-4.5-7.1-3.8-9,0l-21.5,29c-1.7,3.1-5.3,5.3-9.9,5.1l-20.8,0.1l76-98.8c3.9-4.8,6.1-9.6,5.1-14.4v-22.3l-4-8.2
		c5.8-1.4,11.8-1.7,17.6-2l128.8,0.9C656.7,264.9,657.1,259,650.9,259z M488.4,264h-57c-23.5-22-76.2-19.2-99,0h-54
		C312.3,181.1,450.8,178.9,488.4,264z M265.4,261L265.4,261l23-42.3c1.8-2.7,1.2-6-2.5-9.9l-13.8-17.6c-0.5-8.4,5.7-13.4,15-13.7
		c63.8-32.3,126.1-29.8,198,1.4c6.9,3.1,9.1,7.3,6.7,12.6l-25.1,29c-23.2-15.9-50.5-26.6-84.9-28.3c-31,1.3-63.4,8.7-81,30
		c-8.8,9.2-19.1,20.3-24.8,33.6C273.8,260.2,270.4,261.1,265.4,261z M381.6,347.7c-13.2,0-23.8-6.1-23.8-13.7
		c0-7.5,10.7-13.7,23.8-13.7c13.2,0,23.8,6.1,23.8,13.7C405.4,341.5,394.7,347.7,381.6,347.7z M497.4,298c0,2-1.3,4.1-2.7,6
		l-25.5,28.8c-12.2,17.3-36,13.8-44.3-0.5c-15.7-34.5-65.8-41.2-87.8,0.8c-8,16.8-35.8,12-41.8,3.2l-26.8-36.7c-1.2-2-2.2-3.1-2-5.5
		v-20.9c-0.2-1.7,1-4.3,4-4.4l89.8-1l8.2-7h27.3l10.7,7.3l85.7,0.6c2.6,0.6,4.4,2.6,5.3,6.4V298H497.4z"/>
	<polygon id="XMLID_278_" class="st1" points="270.4,271 270.4,301 295.4,301 295.4,296 301.4,296.2 301.4,300 356.4,300 356.4,302 
		362.4,302 369.4,307.6 369.4,324 381.6,325.5 393.4,324.3 393.4,310 402.1,302 407.4,302 407.4,300 463.4,300 463.4,298 
		468.4,297.9 468.4,301 495.4,301.2 495.4,271 468.4,271 468.3,276.1 463.3,276.2 463.2,271.7 407.6,271.6 407.7,269 401.4,269 
		394.4,263 371.4,263 362.5,270 356.4,270 356.3,271.5 302,271.7 301.9,276.2 295.9,276.2 295.8,271.1 	"/>
	<path id="XMLID_274_" class="st1" d="M293.3,212.2l-19.6-24.4c1.9-5.9,6.3-7.7,11.9-7.7l1.1,1.7c28.1-15.7,56.7-23.3,85.7-24.8
		v-12.9l-17.7-0.4l9.6-32l6.1,1.7l6.5,3.8l16.5,7.2l7.3,3l6.5,3.6v14.3h-16l0.2,11.6c33.2,3.1,62.6,10.9,86.6,25.5l2.1-2.5
		c7.1,0.4,10.8,3.1,11.8,7.9l-20.4,24.3c-4.9,0.7-8.9-1-12.1-5c-51.5-23.6-103.1-23.8-154.7,0.1
		C302.3,210.7,298.6,212.8,293.3,212.2z"/>
	<polygon id="XMLID_285_" class="st1" points="117.4,152 140.4,152 133.1,233.5 117.4,245.7 117.4,255 77.4,256 77.4,250 
		65.4,250.2 74.4,177.7 106.9,179.2 100.9,232.5 107.6,238 108.6,233 107.1,233 	"/>
	<polygon id="XMLID_288_" class="st1" points="23.1,120.4 58.4,122.5 57.6,129.3 80.6,131.7 78.1,157 71.6,156.6 63.4,233.5 
		35,231.2 42,155.6 19.6,154.4 	"/>
	<polygon id="XMLID_289_" class="st1" points="18.4,157 12.2,209.5 34.2,211.9 40.5,158.2 	"/>
	<polygon id="XMLID_290_" class="st1" points="29.4,213.9 22.4,279.7 6.2,278.6 12.9,212.3 	"/>
	<polygon id="XMLID_291_" class="st1" points="63.9,294.2 68.9,344.5 0.9,349.4 -3.1,299.2 23.1,297.5 26.1,328.7 34,328.4 
		31.4,297.2 	"/>
	<polygon id="XMLID_293_" class="st1" points="67,279.6 73,344.4 107.3,342.2 106.4,335 112.4,334.3 113.4,341 137.9,339 
		132.9,295.7 98.6,275 73.4,275 	"/>
</g>
<image style="display:none;overflow:visible;enable-background:new    ;" width="3023" height="3873" id="XMLID_282_" xlink:href="A53AA2B5.jpeg"  transform="matrix(0.231 0 0 0.1974 22.3931 -134.4751)">
</image>
<text id="block1" transform="matrix(1.0053 0 0 1 357.7999 288.305)" class="st3 st4 st5">AB BLOCK</text>
<text id="block2" transform="matrix(1.0603 0 0 1 373 175.7381)" class="st3 st4 st6">CLC</text>
<text id="block3" transform="matrix(0.9383 0 0 1 357.8 230.1235)" class="st3 st4 st7">AMPHITHEATRE</text>
<text id="block4" transform="matrix(0.9465 0 0 1 541.1308 216.8425)">
    <tspan x="0" y="0" class="st3 st4 st8">RB </tspan>
    <tspan x="-8.4" y="10.1" class="st3 st4 st8">BLOCK</tspan>
</text>
<text id="block5" transform="matrix(0.9257 0 0 1 531.9687 353.0929)">
    <tspan x="0" y="0" class="st3 st4 st9">NORTH </tspan>
    <tspan x="1" y="10.5" class="st3 st4 st9">BLOCK</tspan>
</text>
<text id="block6" transform="matrix(0.9456 0 0 1 217.8097 282.3578)">
    <tspan x="0" y="0" class="st3 st4 st10">SOUTH </tspan>
    <tspan x="0.3" y="10.7" class="st3 st4 st10">BLOCK</tspan>
</text>
<text id="block7" transform="matrix(1.0159 0 0 1 222.0981 213.1675)" class="st3 st4 st11">VB</text>
<text id="block8" transform="matrix(0.821 0 0 1 364.5322 136.1228)" class="st3 st4 st12">AMENITY</text>
<text id="block9" transform="matrix(1.0273 0 0 1 323.3674 121.5)">
    <tspan x="0" y="0" class="st3 st4 st13">MINI </tspan>
    <tspan x="-14.5" y="6.9" class="st3 st4 st13">AUDITORIUM</tspan>
</text>
<text id="block10" transform="matrix(0.9487 0 0 1 229.6264 97.1123)">
    <tspan x="0" y="0" class="st3 st4 st14">AK </tspan>
    <tspan x="-10.2" y="12.1" class="st3 st4 st14">BLOCK</tspan>
</text>
<text id="block11" transform="matrix(0.9756 0 0 1 74.1585 224.6585)" class="st3 st4 st15">LAB1</text>
<text id="block12" transform="matrix(0.8696 0 0 1 89.6289 311.4278)" class="st3 st4 st16">LAB2</text>
<text id="block13" transform="matrix(0.873 0 0 1 21.7257 340.3216)" class="st3 st4 st17">LAB3</text>
<text id="block14" transform="matrix(0.8508 0 0 1 44.1287 183.2263)" class="st3 st4 st18">LAB4</text>
</svg>
